<svg width="22" height="22" viewBox="0 0 19 19" fill="none" xmlns="http://www.w3.org/2000/svg">
<path d="M0.5 18C0.5 18.2761 0.723858 18.5 1 18.5H3C3.13261 18.5 3.25979 18.4473 3.35355 18.3536L9.5 12.2071L15.6464 18.3536C15.7402 18.4473 15.8674 18.5 16 18.5H18C18.2761 18.5 18.5 18.2761 18.5 18V16C18.5 15.8674 18.4473 15.7402 18.3536 15.6464L12.2071 9.5L18.3536 3.35355C18.4473 3.25979 18.5 3.13261 18.5 3V1C18.5 0.723858 18.2761 0.5 18 0.5H16C15.8674 0.5 15.7402 0.552678 15.6464 0.646447L9.5 6.79289L3.35355 0.646447C3.25979 0.552678 3.13261 0.5 3 0.5H1C0.723858 0.5 0.5 0.723858 0.5 1V3C0.5 3.13261 0.552678 3.25979 0.646447 3.35355L6.79289 9.5L0.646447 15.6464C0.552678 15.7402 0.5 15.8674 0.5 16V18Z" fill="#fefefe" stroke="black" stroke-linecap="round" stroke-linejoin="round"/>
</svg>
